HIERARCHY
ROOT mixamorig:Hips
{
	OFFSET -0.000008 104.274872 1.554316
	CHANNELS 6 Xposition Yposition Zposition Xrotation Yrotation Zrotation
	JOINT mixamorig:Spine
	{
		OFFSET -0.000005 10.181595 0.131519
		CHANNELS 6 Xposition Yposition Zposition Xrotation Yrotation Zrotation
		JOINT mixamorig:Spine1
		{
			OFFSET -0.000000 9.893959 -1.470707
			CHANNELS 6 Xposition Yposition Zposition Xrotation Yrotation Zrotation
			JOINT mixamorig:Spine2
			{
				OFFSET -0.000000 9.220757 -1.370641
				CHANNELS 6 Xposition Yposition Zposition Xrotation Yrotation Zrotation
				JOINT mixamorig:Neck
				{
					OFFSET 0.000001 16.740417 -2.049036
					CHANNELS 6 Xposition Yposition Zposition Xrotation Yrotation Zrotation
					JOINT mixamorig:Head
					{
						OFFSET 0.000000 9.617874 1.685006
						CHANNELS 6 Xposition Yposition Zposition Xrotation Yrotation Zrotation
						JOINT mixamorig:HeadTop_End
						{
							OFFSET 0.000002 22.037354 7.501101
							CHANNELS 6 Xposition Yposition Zposition Xrotation Yrotation Zrotation
							End Site
							{
								OFFSET 0.000168 2310.654297 -282.823242
							}
						}
					}
				}
				JOINT mixamorig:RightShoulder
				{
					OFFSET -4.569970 11.014908 -2.160885
					CHANNELS 6 Xposition Yposition Zposition Xrotation Yrotation Zrotation
					JOINT mixamorig:RightArm
					{
						OFFSET -10.592851 -0.524811 -2.232101
						CHANNELS 6 Xposition Yposition Zposition Xrotation Yrotation Zrotation
						JOINT mixamorig:RightForeArm
						{
							OFFSET -27.841511 0.000031 -0.000004
							CHANNELS 6 Xposition Yposition Zposition Xrotation Yrotation Zrotation
							JOINT mixamorig:RightHand
							{
								OFFSET -28.328831 -0.000015 0.000015
								CHANNELS 6 Xposition Yposition Zposition Xrotation Yrotation Zrotation
								JOINT mixamorig:RightHandThumb1
								{
									OFFSET -2.464806 -1.573990 2.681852
									CHANNELS 6 Xposition Yposition Zposition Xrotation Yrotation Zrotation
									JOINT mixamorig:RightHandThumb2
									{
										OFFSET -3.215179 -1.872803 1.924282
										CHANNELS 6 Xposition Yposition Zposition Xrotation Yrotation Zrotation
										JOINT mixamorig:RightHandThumb3
										{
											OFFSET -2.654831 -1.527969 1.512609
											CHANNELS 6 Xposition Yposition Zposition Xrotation Yrotation Zrotation
											JOINT mixamorig:RightHandThumb4
											{
												OFFSET -2.018814 -1.152008 1.108052
												CHANNELS 6 Xposition Yposition Zposition Xrotation Yrotation Zrotation
												End Site
												{
													OFFSET -188.809540 -114.533607 132.431396
												}
											}
										}
									}
								}
								JOINT mixamorig:RightHandIndex1
								{
									OFFSET -9.108284 -0.517868 2.259835
									CHANNELS 6 Xposition Yposition Zposition Xrotation Yrotation Zrotation
									JOINT mixamorig:RightHandIndex2
									{
										OFFSET -3.699989 0.000000 0.001215
										CHANNELS 6 Xposition Yposition Zposition Xrotation Yrotation Zrotation
										JOINT mixamorig:RightHandIndex3
										{
											OFFSET -2.850006 0.000031 -0.000522
											CHANNELS 6 Xposition Yposition Zposition Xrotation Yrotation Zrotation
											JOINT mixamorig:RightHandIndex4
											{
												OFFSET -2.772186 -0.000015 -0.000020
												CHANNELS 6 Xposition Yposition Zposition Xrotation Yrotation Zrotation
												End Site
												{
													OFFSET -277.218445 0.000000 -0.050231
												}
											}
										}
									}
								}
								JOINT mixamorig:RightHandMiddle1
								{
									OFFSET -9.532516 -0.000031 -0.000023
									CHANNELS 6 Xposition Yposition Zposition Xrotation Yrotation Zrotation
									JOINT mixamorig:RightHandMiddle2
									{
										OFFSET -3.700005 -0.000015 0.003713
										CHANNELS 6 Xposition Yposition Zposition Xrotation Yrotation Zrotation
										JOINT mixamorig:RightHandMiddle3
										{
											OFFSET -2.949974 0.000015 -0.002054
											CHANNELS 6 Xposition Yposition Zposition Xrotation Yrotation Zrotation
											JOINT mixamorig:RightHandMiddle4
											{
												OFFSET -2.946640 0.000000 -0.000156
												CHANNELS 6 Xposition Yposition Zposition Xrotation Yrotation Zrotation
												End Site
												{
													OFFSET -294.664337 0.000000 -0.113670
												}
											}
										}
									}
								}
								JOINT mixamorig:RightHandRing1
								{
									OFFSET -9.103600 -0.043076 -1.865134
									CHANNELS 6 Xposition Yposition Zposition Xrotation Yrotation Zrotation
									JOINT mixamorig:RightHandRing2
									{
										OFFSET -3.379288 0.000000 -0.001055
										CHANNELS 6 Xposition Yposition Zposition Xrotation Yrotation Zrotation
										JOINT mixamorig:RightHandRing3
										{
											OFFSET -2.889687 -0.000015 0.000379
											CHANNELS 6 Xposition Yposition Zposition Xrotation Yrotation Zrotation
											JOINT mixamorig:RightHandRing4
											{
												OFFSET -2.638809 -0.000015 0.000941
												CHANNELS 6 Xposition Yposition Zposition Xrotation Yrotation Zrotation
												End Site
												{
													OFFSET -263.880371 0.000000 0.516020
												}
											}
										}
									}
								}
								JOINT mixamorig:RightHandPinky1
								{
									OFFSET -8.076683 -0.486710 -3.806280
									CHANNELS 6 Xposition Yposition Zposition Xrotation Yrotation Zrotation
									JOINT mixamorig:RightHandPinky2
									{
										OFFSET -3.600014 -0.000015 -0.003747
										CHANNELS 6 Xposition Yposition Zposition Xrotation Yrotation Zrotation
										JOINT mixamorig:RightHandPinky3
										{
											OFFSET -2.099983 0.000000 -0.005739
											CHANNELS 6 Xposition Yposition Zposition Xrotation Yrotation Zrotation
											JOINT mixamorig:RightHandPinky4
											{
												OFFSET -2.115768 -0.000031 -0.003680
												CHANNELS 6 Xposition Yposition Zposition Xrotation Yrotation Zrotation
												End Site
												{
													OFFSET -211.577087 0.000000 -0.350686
												}
											}
										}
									}
								}
							}
						}
					}
				}
				JOINT mixamorig:LeftShoulder
				{
					OFFSET 4.570447 11.014725 -2.160855
					CHANNELS 6 Xposition Yposition Zposition Xrotation Yrotation Zrotation
					JOINT mixamorig:LeftArm
					{
						OFFSET 10.592371 -0.524597 -2.232119
						CHANNELS 6 Xposition Yposition Zposition Xrotation Yrotation Zrotation
						JOINT mixamorig:LeftForeArm
						{
							OFFSET 27.841532 -0.000031 0.000026
							CHANNELS 6 Xposition Yposition Zposition Xrotation Yrotation Zrotation
							JOINT mixamorig:LeftHand
							{
								OFFSET 28.328846 -0.000061 0.000022
								CHANNELS 6 Xposition Yposition Zposition Xrotation Yrotation Zrotation
								JOINT mixamorig:LeftHandThumb1
								{
									OFFSET 2.466141 -1.576172 2.681732
									CHANNELS 6 Xposition Yposition Zposition Xrotation Yrotation Zrotation
									JOINT mixamorig:LeftHandThumb2
									{
										OFFSET 3.217812 -1.872070 1.916482
										CHANNELS 6 Xposition Yposition Zposition Xrotation Yrotation Zrotation
										JOINT mixamorig:LeftHandThumb3
										{
											OFFSET 2.656029 -1.528778 1.514513
											CHANNELS 6 Xposition Yposition Zposition Xrotation Yrotation Zrotation
											JOINT mixamorig:LeftHandThumb4
											{
												OFFSET 2.020889 -1.154053 1.115139
												CHANNELS 6 Xposition Yposition Zposition Xrotation Yrotation Zrotation
												End Site
												{
													OFFSET 190.885437 -115.081749 130.048782
												}
											}
										}
									}
								}
								JOINT mixamorig:LeftHandIndex1
								{
									OFFSET 9.109314 -0.518021 2.259871
									CHANNELS 6 Xposition Yposition Zposition Xrotation Yrotation Zrotation
									JOINT mixamorig:LeftHandIndex2
									{
										OFFSET 3.699989 0.000000 -0.000322
										CHANNELS 6 Xposition Yposition Zposition Xrotation Yrotation Zrotation
										JOINT mixamorig:LeftHandIndex3
										{
											OFFSET 2.850006 0.000000 0.000352
											CHANNELS 6 Xposition Yposition Zposition Xrotation Yrotation Zrotation
											JOINT mixamorig:LeftHandIndex4
											{
												OFFSET 2.774864 -0.000031 -0.000027
												CHANNELS 6 Xposition Yposition Zposition Xrotation Yrotation Zrotation
												End Site
												{
													OFFSET 277.486267 0.000000 -0.009857
												}
											}
										}
									}
								}
								JOINT mixamorig:LeftHandMiddle1
								{
									OFFSET 9.533394 0.000061 0.000044
									CHANNELS 6 Xposition Yposition Zposition Xrotation Yrotation Zrotation
									JOINT mixamorig:LeftHandMiddle2
									{
										OFFSET 3.699989 -0.000015 -0.000231
										CHANNELS 6 Xposition Yposition Zposition Xrotation Yrotation Zrotation
										JOINT mixamorig:LeftHandMiddle3
										{
											OFFSET 2.949997 -0.000015 -0.000059
											CHANNELS 6 Xposition Yposition Zposition Xrotation Yrotation Zrotation
											JOINT mixamorig:LeftHandMiddle4
											{
												OFFSET 2.952896 0.000031 0.000063
												CHANNELS 6 Xposition Yposition Zposition Xrotation Yrotation Zrotation
												End Site
												{
													OFFSET 295.289337 0.000000 0.022810
												}
											}
										}
									}
								}
								JOINT mixamorig:LeftHandRing1
								{
									OFFSET 9.104523 -0.042999 -1.865074
									CHANNELS 6 Xposition Yposition Zposition Xrotation Yrotation Zrotation
									JOINT mixamorig:LeftHandRing2
									{
										OFFSET 3.150009 -0.000031 0.000043
										CHANNELS 6 Xposition Yposition Zposition Xrotation Yrotation Zrotation
										JOINT mixamorig:LeftHandRing3
										{
											OFFSET 2.949982 -0.000015 0.000040
											CHANNELS 6 Xposition Yposition Zposition Xrotation Yrotation Zrotation
											JOINT mixamorig:LeftHandRing4
											{
												OFFSET 2.644348 0.000000 0.000057
												CHANNELS 6 Xposition Yposition Zposition Xrotation Yrotation Zrotation
												End Site
												{
													OFFSET 264.434631 0.000000 0.012105
												}
											}
										}
									}
								}
								JOINT mixamorig:LeftHandPinky1
								{
									OFFSET 8.077789 -0.486847 -3.806259
									CHANNELS 6 Xposition Yposition Zposition Xrotation Yrotation Zrotation
									JOINT mixamorig:LeftHandPinky2
									{
										OFFSET 3.599953 0.000031 0.014727
										CHANNELS 6 Xposition Yposition Zposition Xrotation Yrotation Zrotation
										JOINT mixamorig:LeftHandPinky3
										{
											OFFSET 2.100021 0.000015 0.007705
											CHANNELS 6 Xposition Yposition Zposition Xrotation Yrotation Zrotation
											JOINT mixamorig:LeftHandPinky4
											{
												OFFSET 2.125504 0.000031 0.007517
												CHANNELS 6 Xposition Yposition Zposition Xrotation Yrotation Zrotation
												End Site
												{
													OFFSET 212.550781 0.000000 0.625752
												}
											}
										}
									}
								}
							}
						}
					}
				}
			}
		}
	}
	JOINT mixamorig:RightUpLeg
	{
		OFFSET -8.207787 -6.751648 -1.599560
		CHANNELS 6 Xposition Yposition Zposition Xrotation Yrotation Zrotation
		JOINT mixamorig:RightLeg
		{
			OFFSET -0.000002 -44.370117 0.345942
			CHANNELS 6 Xposition Yposition Zposition Xrotation Yrotation Zrotation
			JOINT mixamorig:RightFoot
			{
				OFFSET 0.000003 -44.423679 -3.043532
				CHANNELS 6 Xposition Yposition Zposition Xrotation Yrotation Zrotation
				JOINT mixamorig:RightToeBase
				{
					OFFSET -0.000002 -8.728671 10.710558
					CHANNELS 6 Xposition Yposition Zposition Xrotation Yrotation Zrotation
					JOINT mixamorig:RightToe_End
					{
						OFFSET -0.000001 -0.000679 9.278119
						CHANNELS 6 Xposition Yposition Zposition Xrotation Yrotation Zrotation
						End Site
						{
							OFFSET 0.000000 -0.067690 927.812134
						}
					}
				}
			}
		}
	}
	JOINT mixamorig:LeftUpLeg
	{
		OFFSET 8.207793 -6.751686 -1.599556
		CHANNELS 6 Xposition Yposition Zposition Xrotation Yrotation Zrotation
		JOINT mixamorig:LeftLeg
		{
			OFFSET -0.000004 -44.370014 0.346954
			CHANNELS 6 Xposition Yposition Zposition Xrotation Yrotation Zrotation
			JOINT mixamorig:LeftFoot
			{
				OFFSET -0.000001 -44.423672 -3.044401
				CHANNELS 6 Xposition Yposition Zposition Xrotation Yrotation Zrotation
				JOINT mixamorig:LeftToeBase
				{
					OFFSET -0.000002 -8.728669 10.710558
					CHANNELS 6 Xposition Yposition Zposition Xrotation Yrotation Zrotation
					JOINT mixamorig:LeftToe_End
					{
						OFFSET -0.000003 -0.000679 9.278133
						CHANNELS 6 Xposition Yposition Zposition Xrotation Yrotation Zrotation
						End Site
						{
							OFFSET 0.000000 -0.068021 927.813477
						}
					}
				}
			}
		}
	}
}
MOTION
Frames: 3
Frame Time: 0.033333
0.000006 104.270477 1.554256 0.000010 0.000003 -0.000113 -0.000005 10.181587 0.131522 0.000001 -0.000003 0.000084 -0.000000 9.893967 -1.470711 0.000001 0.000000 -0.000000 -0.000000 9.220802 -1.370642 0.000000 -0.000000 -0.000000 0.000001 16.740433 -2.049030 0.000000 -0.000000 -0.000000 0.000000 9.617859 1.685014 0.000000 0.000000 0.000000 0.000002 22.037384 7.501101 0.000000 -0.000000 0.000000 -4.569968 11.014880 -2.160881 0.000008 0.000001 -0.000038 -10.592872 -0.524772 -2.231905 73.556479 31.802225 -24.042894 -27.841520 0.000015 0.000533 -54.895753 106.147109 69.298696 -28.328821 -0.000006 0.000028 -0.000323 -0.000044 0.000007 -2.464420 -1.573821 2.682375 -42.998595 -165.066029 3.157947 -3.215291 -1.872620 1.924685 156.149558 28.512302 -14.993244 -2.654950 -1.527892 1.513072 147.064601 26.578870 -40.554016 -2.018827 -1.152014 1.108060 0.000000 0.000002 0.000005 -9.108367 -0.517569 2.260135 97.378239 18.278971 -20.800870 -3.700091 0.000316 0.001500 93.026664 14.794161 -15.562245 -2.850085 0.000370 -0.000270 92.513335 11.954540 -12.485657 -2.772156 -0.000016 -0.000016 -0.000000 0.000000 -0.000000 -9.532568 0.000271 0.000224 90.143607 15.394874 -15.574862 -3.700060 0.000327 0.003952 89.729903 11.585962 -11.438163 -2.950053 0.000315 -0.001832 89.283058 11.854761 -11.701334 -2.946623 0.000003 -0.000156 0.000006 0.000000 -0.000001 -9.103699 -0.042768 -1.864879 88.042306 16.430247 -15.842467 -3.379341 0.000326 -0.000825 88.662494 9.553719 -9.351177 -2.889747 0.000350 0.000609 90.956967 6.895846 -7.057979 -2.638804 -0.000011 0.000941 0.000001 0.000000 0.000001 -8.076735 -0.486392 -3.806036 83.204456 15.196196 -13.377590 -3.600047 0.000275 -0.003539 84.328056 8.737572 -7.592208 -2.100001 0.000312 -0.005536 84.179049 6.742491 -5.889902 -2.115767 -0.000055 -0.003677 0.000005 -0.000000 -0.000004 4.570446 11.014691 -2.160851 -0.000018 0.000010 -0.000021 10.592419 -0.524472 -2.232377 73.121929 -18.994239 14.144574 27.841835 0.000080 -0.000180 -71.002555 -108.952575 -89.952396 28.328842 -0.000028 0.000019 0.000024 -0.000087 -0.000001 2.465938 -1.576131 2.681911 -47.197881 166.009483 8.533201 3.217831 -1.871769 1.916366 154.244700 -28.025480 18.139731 2.656072 -1.528607 1.514453 141.468490 -27.881343 37.334159 2.020891 -1.154047 1.115157 0.000006 0.000004 0.000003 9.109379 -0.517860 2.259744 85.486211 -16.597993 15.343405 3.700043 0.000154 -0.000466 84.658617 -16.655835 15.205435 2.850070 0.000197 0.000226 83.465410 -14.254330 12.726938 2.774872 -0.000031 -0.000025 -0.000002 -0.000002 0.000000 9.533461 0.000213 -0.000093 86.365324 -16.348384 15.346866 3.700051 0.000174 -0.000366 89.754334 -15.658116 15.589184 2.950067 0.000156 -0.000184 88.060106 -19.196532 18.571692 2.952864 -0.000029 0.000061 0.000003 -0.000000 0.000000 9.104593 -0.042862 -1.865216 83.015499 -17.203179 15.250749 3.150053 0.000194 -0.000079 92.779473 -17.128825 17.969020 2.950019 0.000173 -0.000045 95.429101 -17.921195 19.673936 2.644331 0.000030 0.000054 -0.000001 0.000000 0.000001 8.077858 -0.486776 -3.806402 65.478722 -21.004580 14.003951 3.599978 0.000134 0.014582 68.929654 -15.510661 11.046689 2.100050 0.000154 0.007544 71.758965 -14.376025 10.788525 2.125498 -0.000002 0.007518 -0.000002 0.000001 -0.000001 -8.207786 -6.751667 -1.599560 -0.077001 -0.000003 0.000080 -0.000002 -44.370110 0.345938 0.153719 -0.000000 -0.000000 0.000000 -44.423679 -3.043532 -0.076700 0.000000 -0.000002 -0.000006 -8.728667 10.710559 -0.000009 -0.000000 -0.000000 -0.000001 -0.000679 9.278123 0.000000 -0.000000 -0.000000 8.207792 -6.751710 -1.599556 -0.074518 -0.000003 0.000081 -0.000002 -44.370014 0.346960 0.148822 0.000002 0.000000 -0.000001 -44.423664 -3.044403 -0.074314 0.000000 -0.000002 -0.000004 -8.728671 10.710558 0.000007 -0.000000 -0.000000 0.000000 -0.000680 9.278137 -0.000000 0.000000 -0.000001 
0.000006 104.270477 1.554256 0.000010 0.000003 -0.000113 -0.000005 10.181587 0.131522 0.000001 -0.000003 0.000084 -0.000000 9.893967 -1.470711 0.000001 0.000000 -0.000000 -0.000000 9.220802 -1.370642 0.000000 -0.000000 -0.000000 0.000001 16.740433 -2.049030 0.000000 -0.000000 -0.000000 0.000000 9.617859 1.685014 0.000000 0.000000 0.000000 0.000002 22.037384 7.501101 0.000000 -0.000000 0.000000 -4.569968 11.014880 -2.160881 0.000008 0.000001 -0.000038 -10.592875 -0.524778 -2.231891 73.101814 32.456461 -24.352587 -27.841522 -0.000006 0.000556 -49.667356 103.428516 60.764313 -28.328817 0.000023 0.000024 -0.000322 -0.000039 0.000003 -2.464436 -1.573722 2.682311 -51.630988 -170.761177 -20.744528 -3.215282 -1.872606 1.924677 151.968594 29.334860 -9.779484 -2.654948 -1.527860 1.513059 142.353819 28.075373 -32.981221 -2.018827 -1.152013 1.108058 -0.000003 -0.000003 0.000002 -9.108393 -0.517553 2.260099 94.201628 15.339915 -16.542334 -3.700075 0.000329 0.001492 92.244696 12.702407 -13.181395 -2.850079 0.000365 -0.000280 91.138465 10.249060 -10.452690 -2.772188 0.000002 -0.000020 0.000004 -0.000002 0.000001 -9.532584 0.000270 0.000218 89.483620 14.654697 -14.663836 -3.700083 0.000334 0.003963 90.256340 11.679025 -11.636405 -2.950054 0.000332 -0.001827 91.535566 11.613236 -11.919189 -2.946619 0.000002 -0.000156 0.000001 -0.000002 0.000001 -9.103697 -0.042742 -1.864898 86.435095 15.366151 -14.407389 -3.379314 0.000322 -0.000821 89.524375 9.157457 -9.099168 -2.889757 0.000346 0.000632 95.721509 6.916530 -7.692384 -2.638809 -0.000042 0.000940 0.000001 -0.000003 0.000000 -8.076750 -0.486386 -3.806050 80.035945 15.187819 -12.649014 -3.600036 0.000283 -0.003546 83.910807 7.170287 -6.133393 -2.100005 0.000309 -0.005510 87.436072 4.415377 -4.016162 -2.115768 -0.000043 -0.003679 0.000001 0.000001 -0.000000 4.570446 11.014691 -2.160851 -0.000018 0.000010 -0.000021 10.592432 -0.524467 -2.232390 73.091459 -24.962072 18.634233 27.841827 0.000045 -0.000192 -68.697448 -104.836615 -83.210029 28.328857 -0.000012 0.000026 0.000025 -0.000088 -0.000001 2.465872 -1.576103 2.681907 -50.606565 176.605251 19.194437 3.217842 -1.871807 1.916376 157.281963 -26.706808 24.399770 2.656105 -1.528655 1.514451 137.751119 -28.352643 48.860663 2.020895 -1.154072 1.115145 0.000000 -0.000002 0.000001 9.109356 -0.517859 2.259733 85.973907 -15.286472 14.247954 3.700031 0.000161 -0.000452 83.151365 -10.208682 9.075611 2.850036 0.000193 0.000201 83.458512 -8.420645 7.511898 2.774889 -0.000031 -0.000027 -0.000001 -0.000001 0.000002 9.533453 0.000215 -0.000096 87.189810 -14.527923 13.830892 3.700043 0.000184 -0.000381 88.683688 -9.964361 9.736584 2.950054 0.000181 -0.000208 90.308317 -11.522491 11.587161 2.952881 -0.000015 0.000064 0.000002 0.000000 0.000000 9.104570 -0.042849 -1.865218 84.367091 -14.687297 13.324710 3.150055 0.000212 -0.000098 92.147755 -11.229277 11.657272 2.950016 0.000178 -0.000072 95.046816 -11.648533 12.716060 2.644326 0.000047 0.000056 0.000005 0.000000 -0.000000 8.077822 -0.486750 -3.806373 69.638307 -17.360333 12.543957 3.600007 0.000170 0.014570 72.223397 -14.952582 11.321700 2.100039 0.000163 0.007545 74.489811 -12.142478 9.617072 2.125526 -0.000015 0.007519 0.000001 0.000000 0.000000 -8.207786 -6.751667 -1.599560 -0.077001 -0.000003 0.000080 -0.000002 -44.370110 0.345938 0.153719 -0.000000 -0.000000 0.000000 -44.423679 -3.043532 -0.076700 0.000000 -0.000002 -0.000006 -8.728667 10.710559 -0.000009 -0.000000 -0.000000 -0.000001 -0.000679 9.278123 0.000000 -0.000000 -0.000000 8.207792 -6.751710 -1.599556 -0.074518 -0.000003 0.000081 -0.000002 -44.370014 0.346960 0.148822 0.000002 0.000000 -0.000001 -44.423664 -3.044403 -0.074314 0.000000 -0.000002 -0.000004 -8.728671 10.710558 0.000007 -0.000000 -0.000000 0.000000 -0.000680 9.278137 -0.000000 0.000000 -0.000001 
0.000006 104.270477 1.554256 0.000010 0.000003 -0.000113 -0.000005 10.181587 0.131522 0.000001 -0.000003 0.000084 -0.000000 9.893967 -1.470711 0.000001 0.000000 -0.000000 -0.000000 9.220802 -1.370642 0.000000 -0.000000 -0.000000 0.000001 16.740433 -2.049030 0.000000 -0.000000 -0.000000 0.000000 9.617859 1.685014 0.000000 0.000000 0.000000 0.000002 22.037384 7.501101 0.000000 -0.000000 0.000000 -4.569968 11.014880 -2.160881 0.000008 0.000001 -0.000038 -10.592861 -0.524791 -2.231855 73.005638 39.729090 -29.938293 -27.841530 0.000011 0.000571 -46.400665 102.639985 56.326664 -28.328840 0.000023 0.000031 -0.000319 -0.000045 0.000006 -2.464455 -1.573688 2.682289 -54.655922 -175.801119 -32.108521 -3.215300 -1.872635 1.924669 149.755886 28.396821 -16.833437 -2.654959 -1.527869 1.513048 140.014425 28.453974 -32.979555 -2.018831 -1.151999 1.108062 -0.000004 -0.000003 0.000004 -9.108365 -0.517550 2.260105 94.111326 13.941872 -15.017520 -3.700063 0.000323 0.001493 92.249799 11.641635 -12.080628 -2.850068 0.000379 -0.000284 90.897196 9.165697 -9.308815 -2.772177 -0.000015 -0.000016 0.000003 -0.000003 -0.000001 -9.532579 0.000276 0.000213 89.549026 12.377832 -12.417539 -3.700048 0.000340 0.003953 90.835444 10.770321 -10.833006 -2.950044 0.000335 -0.001818 91.257434 10.596892 -10.823486 -2.946633 0.000002 -0.000156 -0.000001 -0.000002 -0.000003 -9.103672 -0.042755 -1.864899 87.360688 13.016060 -12.393604 -3.379323 0.000320 -0.000821 90.163148 9.646789 -9.691559 -2.889762 0.000343 0.000627 95.370717 7.754721 -8.565826 -2.638797 -0.000029 0.000941 0.000003 -0.000000 0.000001 -8.076735 -0.486377 -3.806060 81.650308 13.784001 -11.796476 -3.600027 0.000283 -0.003548 83.808170 7.016483 -5.984914 -2.100005 0.000310 -0.005504 87.841082 4.227725 -3.864509 -2.115782 -0.000054 -0.003680 0.000001 -0.000003 -0.000007 4.570446 11.014691 -2.160851 -0.000018 0.000010 -0.000021 10.592461 -0.524471 -2.232396 72.613544 -32.819452 24.419612 27.841835 0.000022 -0.000194 -67.064644 -103.363192 -79.963955 28.328829 -0.000029 0.000021 0.000022 -0.000089 -0.000002 2.465884 -1.576074 2.681889 -51.868187 180.170323 24.814547 3.217847 -1.871832 1.916389 156.709415 -25.934472 28.797423 2.656103 -1.528662 1.514461 137.977375 -28.282925 49.013379 2.020883 -1.154072 1.115137 0.000002 0.000002 0.000003 9.109367 -0.517859 2.259714 86.065697 -15.563225 14.529549 3.700029 0.000167 -0.000469 83.476776 -10.264252 9.177118 2.850028 0.000201 0.000200 83.110036 -8.224581 7.292164 2.774869 -0.000029 -0.000025 0.000003 0.000001 0.000001 9.533461 0.000213 -0.000086 87.643061 -15.309340 14.690620 3.700039 0.000192 -0.000386 88.133831 -10.015997 9.693998 2.950044 0.000189 -0.000208 89.101491 -11.001920 10.834597 2.952896 -0.000030 0.000062 0.000003 -0.000000 -0.000000 9.104586 -0.042848 -1.865237 84.771267 -15.640817 14.291406 3.150042 0.000214 -0.000094 91.919935 -11.522895 11.914724 2.950043 0.000189 -0.000077 94.090726 -11.102024 11.920532 2.644325 0.000032 0.000055 -0.000001 -0.000000 -0.000000 8.077835 -0.486745 -3.806413 71.398010 -18.148108 13.531105 3.600013 0.000149 0.014579 73.035588 -15.585991 11.965234 2.100039 0.000162 0.007554 74.994002 -12.030024 9.617431 2.125511 -0.000015 0.007517 0.000000 -0.000002 0.000000 -8.207786 -6.751667 -1.599560 -0.077001 -0.000003 0.000080 -0.000002 -44.370110 0.345938 0.153719 -0.000000 -0.000000 0.000000 -44.423679 -3.043532 -0.076700 0.000000 -0.000002 -0.000006 -8.728667 10.710559 -0.000009 -0.000000 -0.000000 -0.000001 -0.000679 9.278123 0.000000 -0.000000 -0.000000 8.207792 -6.751710 -1.599556 -0.074518 -0.000003 0.000081 -0.000002 -44.370014 0.346960 0.148822 0.000002 0.000000 -0.000001 -44.423664 -3.044403 -0.074314 0.000000 -0.000002 -0.000004 -8.728671 10.710558 0.000007 -0.000000 -0.000000 0.000000 -0.000680 9.278137 -0.000000 0.000000 -0.000001 
